<svg xmlns="http://www.w3.org/2000/svg" viewBox="0 0 48 48"><defs><style>.cls-1{fill:#dad7e5;}.cls-2{fill:#edebf2;}.cls-3{fill:#919191;}.cls-4{fill:#374f68;}.cls-5{fill:#425b72;}.cls-6{fill:#f26674;}.cls-7{fill:#2c435e;}</style></defs><title>Big Data Cloud</title><g id="Big_Data_Cloud" data-name="Big Data Cloud"><path class="cls-1" d="M47,24a9,9,0,0,1-9,9H11A10,10,0,0,1,9.27,13.15,15,15,0,0,1,39,15.06,9,9,0,0,1,47,24Z"/><path class="cls-2" d="M47,24a9,9,0,0,1-9,9c-29.24,0-27.56.06-28.62-.14a10,10,0,0,1,2.89-18.71A15,15,0,0,1,30.19,2.34,15,15,0,0,1,39,15.06,9,9,0,0,1,47,24Z"/><path class="cls-3" d="M23,29V22a1,1,0,0,1,2,0v7A1,1,0,0,1,23,29Z"/><path class="cls-3" d="M29,29V21a1,1,0,0,1,1-1h4a1,1,0,0,1,0,2H31v7A1,1,0,0,1,29,29Z"/><path class="cls-3" d="M17,29V22H14a1,1,0,0,1,0-2h4a1,1,0,0,1,1,1v8A1,1,0,0,1,17,29Z"/><path class="cls-4" d="M37,21a2,2,0,1,1-2.82-1.82A2,2,0,0,1,37,21Z"/><path class="cls-5" d="M36.82,21.82a2,2,0,0,1-2.64-2.64A2,2,0,0,1,36.82,21.82Z"/><path class="cls-4" d="M26,21a2,2,0,1,1-2.82-1.82A2,2,0,0,1,26,21Z"/><path class="cls-5" d="M25.82,21.82a2,2,0,0,1-2.64-2.64A2,2,0,0,1,25.82,21.82Z"/><path class="cls-4" d="M15,21a2,2,0,1,1-2.82-1.82A2,2,0,0,1,15,21Z"/><path class="cls-5" d="M14.82,21.82a2,2,0,0,1-2.64-2.64A2,2,0,0,1,14.82,21.82Z"/><path class="cls-3" d="M15,44H8a1,1,0,0,1,0-2h7A1,1,0,0,1,15,44Z"/><path class="cls-3" d="M40,44H33a1,1,0,0,1,0-2h7A1,1,0,0,1,40,44Z"/><path class="cls-4" d="M9,43a2,2,0,1,1-2.82-1.82A2,2,0,0,1,9,43Z"/><path class="cls-5" d="M8.82,43.82a2,2,0,0,1-2.64-2.64A2,2,0,0,1,8.82,43.82Z"/><path class="cls-4" d="M43,43a2,2,0,1,1-2.82-1.82A2,2,0,0,1,43,43Z"/><path class="cls-5" d="M42.82,43.82a2,2,0,0,1-2.64-2.64A2,2,0,0,1,42.82,43.82Z"/><rect class="cls-4" x="13" y="27" width="22" height="8"/><rect class="cls-4" x="13" y="39" width="22" height="8"/><path class="cls-5" d="M35,39v6H18a3,3,0,0,1-3-3V39Z"/><path class="cls-5" d="M35,27v6H18a3,3,0,0,1-3-3V27Z"/><path class="cls-6" d="M17,32a1,1,0,1,1,.92-.62A1,1,0,0,1,17,32Z"/><path class="cls-6" d="M20.29,31.71a1,1,0,0,1,1.42-1.42A1,1,0,1,1,20.29,31.71Z"/><path class="cls-2" d="M31,32H26a1,1,0,0,1,0-2h5A1,1,0,0,1,31,32Z"/><path class="cls-6" d="M17,44a1,1,0,1,1,1-1A1,1,0,0,1,17,44Z"/><path class="cls-6" d="M21,44a1,1,0,1,1,.71-1.71A1,1,0,0,1,21,44Z"/><path class="cls-2" d="M31,44H26a1,1,0,0,1,0-2h5A1,1,0,0,1,31,44Z"/><rect class="cls-4" x="15" y="35" width="18" height="4"/><rect class="cls-7" x="15" y="35" width="18" height="2"/></g></svg>