<?xml version="1.0" encoding="utf-8"?>
<!-- Generator: Adobe Illustrator 24.3.0, SVG Export Plug-In . SVG Version: 6.00 Build 0)  -->
<svg version="1.1" id="Layer_1" xmlns="http://www.w3.org/2000/svg" xmlns:xlink="http://www.w3.org/1999/xlink" x="0px" y="0px"
	 viewBox="0 0 180 180" enable-background="new 0 0 180 180" xml:space="preserve">
<g>
	<g id="XMLID_43_">
		<path fill="#FF916E" d="M90,25.377c-35.69,0-64.622,28.933-64.622,64.623c0,35.689,28.932,64.622,64.622,64.622
			c35.689,0,64.622-28.933,64.622-64.622C154.622,54.31,125.69,25.377,90,25.377z"/>
	</g>
	<g>
		<g>
			<g>
				<g>
					<g>
						<path fill="#CCCBC9" d="M99.743,128.572c0-3.902,0-9.562,0-9.562h-7.607h-7.605c0,0,0,5.66,0,9.562
							c0,3.903-10.347,7.064-10.347,7.064h17.952h17.953C110.089,135.635,99.743,132.475,99.743,128.572z"/>
					</g>
					<g>
						<path fill="#CCCBC9" d="M84.531,128.331h15.213c0-3.891,0-9.322,0-9.322H84.531C84.531,119.009,84.531,124.441,84.531,128.331
							z"/>
					</g>
					<g>
						<path fill="#333333" d="M110.12,135.263H74.154c-0.831,0-1.505,0.69-1.505,1.541s0.674,1.541,1.505,1.541h35.967
							c0.83,0,1.504-0.69,1.504-1.541S110.95,135.263,110.12,135.263z"/>
					</g>
				</g>
				<g>
					<path fill="#333333" d="M139.81,49.702H44.463c-1.653,0-2.993,1.372-2.993,3.064v59.318h101.334V52.766
						C142.804,51.074,141.464,49.702,139.81,49.702z"/>
				</g>
				<g>
					<rect x="46.274" y="53.63" fill="#FFFFFF" width="91.726" height="54.525"/>
				</g>
				<g>
					<path fill="#CCCBC9" d="M41.47,120.585c0,1.692,1.34,3.063,2.993,3.063h95.347c1.654,0,2.994-1.371,2.994-3.063v-9.098H41.47
						V120.585z"/>
				</g>
				<g>
					<path fill="#EAE9E8" d="M92.136,114.829c-1.477,0-2.676,1.227-2.676,2.739c0,1.513,1.199,2.739,2.676,2.739
						c1.479,0,2.677-1.227,2.677-2.739C94.813,116.055,93.615,114.829,92.136,114.829z"/>
				</g>
			</g>
		</g>
		<g>
			<g>
				<path fill="#CCCBC9" d="M124.901,41.655H82.719c-4.544,0-8.29,3.594-8.535,8.08h59.251
					C133.191,45.249,129.445,41.655,124.901,41.655z"/>
			</g>
			<g>
				<path fill="#F2F2F2" d="M132.616,41.655c-12.443,0-50.456,0-50.456,0c9.93,0,9.47,8.095,9.47,8.095v59.925
					c0,5.558,4.381,10.063,9.786,10.063h39.982V49.749C141.399,49.749,142.545,41.655,132.616,41.655z"/>
			</g>
			<g>
				<g>
					<path fill="#CCCBC9" d="M101.943,106.41c-0.027-0.005-0.053-0.009-0.08-0.013c-2.605,0.389-4.603,2.633-4.603,5.346
						c0,0.294,0.024,0.583,0.069,0.864h10.211C107.347,109.466,104.99,106.912,101.943,106.41z"/>
				</g>
				<g opacity="0.2">
					<path fill="#CCCBC9" d="M101.943,106.41c-0.027-0.005-0.053-0.009-0.08-0.013c-0.579,0.086-1.127,0.265-1.631,0.519
						c2.76,0.581,4.894,2.857,5.262,5.69h2.047C107.347,109.466,104.99,106.912,101.943,106.41z"/>
				</g>
				<g>
					<g>
						<path fill="#FFFFFF" d="M140.764,106.382v0.012h-38.913c3.227,0.487,5.702,3.269,5.702,6.632c0,3.707-3.005,6.712-6.71,6.712
							h38.664v-0.009c0.105,0.005,0.209,0.009,0.314,0.009c3.707,0,6.711-3.006,6.711-6.712
							C146.533,109.639,144.025,106.84,140.764,106.382z"/>
					</g>
				</g>
			</g>
			<g>
				<g>
					<g>
						<rect x="91.617" y="49.735" fill="#FF916E" width="49.964" height="25.67"/>
					</g>
				</g>
				<g>
					<g>
						<g>
							<rect x="98.399" y="53.299" fill="#FDFBF2" width="17.434" height="12.988"/>
						</g>
					</g>
				</g>
				<g>
					<g>
						<g>
							<rect x="118.146" y="53.299" fill="#FDFBF2" width="17.435" height="12.988"/>
						</g>
					</g>
				</g>
				<g>
					<g>
						<rect x="93.847" y="68.953" fill="#333333" width="18.092" height="1.324"/>
					</g>
				</g>
				<g>
					<g>
						<rect x="93.847" y="71.415" fill="#333333" width="22.16" height="1.325"/>
					</g>
				</g>
				<g>
					<g>
						<rect x="118.458" y="68.953" fill="#333333" width="19.095" height="1.324"/>
					</g>
				</g>
				<g>
					<g>
						<rect x="118.458" y="71.415" fill="#333333" width="14.467" height="1.325"/>
					</g>
				</g>
				<g>
					<g>
						<polygon fill="#333333" points="137.439,61.992 140.086,59.98 137.439,57.967 						"/>
					</g>
				</g>
				<g>
					<g>
						<polygon fill="#333333" points="96.048,61.992 96.048,57.967 93.402,59.981 						"/>
					</g>
				</g>
			</g>
			<g>
				<path fill="#CCCBC9" d="M100.232,78.177c-2.594,0-4.697,2.103-4.697,4.697c0,2.593,2.104,4.695,4.697,4.695
					c2.592,0,4.695-2.103,4.695-4.695C104.927,80.28,102.824,78.177,100.232,78.177z"/>
			</g>
			<g>
				<path fill="#CCCBC9" d="M111.299,78.177c-2.594,0-4.696,2.103-4.696,4.697c0,2.593,2.103,4.695,4.696,4.695
					c2.594,0,4.696-2.103,4.696-4.695C115.995,80.28,113.893,78.177,111.299,78.177z"/>
			</g>
			<g>
				<path fill="#CCCBC9" d="M133.435,78.177c-2.592,0-4.695,2.103-4.695,4.697c0,2.593,2.104,4.695,4.695,4.695
					c2.594,0,4.697-2.103,4.697-4.695C138.132,80.28,136.029,78.177,133.435,78.177z"/>
			</g>
			<g>
				<path fill="#CCCBC9" d="M122.367,78.177c-2.594,0-4.696,2.103-4.696,4.697c0,2.593,2.103,4.695,4.696,4.695
					c2.593,0,4.696-2.103,4.696-4.695C127.064,80.28,124.96,78.177,122.367,78.177z"/>
			</g>
			<g>
				<g>
					<rect x="96.831" y="89.783" fill="#CCCBC9" width="7.055" height="1.874"/>
				</g>
				<g>
					<rect x="96.831" y="92.652" fill="#CCCBC9" width="7.055" height="1.874"/>
				</g>
			</g>
			<g>
				<g>
					<rect x="107.773" y="89.783" fill="#CCCBC9" width="7.053" height="1.874"/>
				</g>
				<g>
					<rect x="107.773" y="92.652" fill="#CCCBC9" width="7.053" height="1.874"/>
				</g>
			</g>
			<g>
				<g>
					<rect x="118.841" y="89.783" fill="#CCCBC9" width="7.053" height="1.874"/>
				</g>
				<g>
					<rect x="118.841" y="92.652" fill="#CCCBC9" width="7.053" height="1.874"/>
				</g>
			</g>
			<g>
				<g>
					<rect x="129.908" y="89.783" fill="#CCCBC9" width="7.054" height="1.874"/>
				</g>
				<g>
					<rect x="129.908" y="92.652" fill="#CCCBC9" width="7.054" height="1.874"/>
				</g>
			</g>
			<g>
				<rect x="91.617" y="97.238" fill="#333333" width="49.781" height="8.51"/>
			</g>
			<g>
				<g>
					<rect x="94.726" y="98.722" fill="#F2F2F2" width="12.754" height="1.327"/>
				</g>
				<g>
					<rect x="94.726" y="100.907" fill="#F2F2F2" width="12.754" height="1.328"/>
				</g>
				<g>
					<rect x="94.726" y="103.093" fill="#F2F2F2" width="12.754" height="1.326"/>
				</g>
			</g>
			<g>
				<g>
					<rect x="109.565" y="98.722" fill="#F2F2F2" width="12.755" height="1.327"/>
				</g>
				<g>
					<rect x="109.565" y="100.907" fill="#F2F2F2" width="12.755" height="1.328"/>
				</g>
				<g>
					<rect x="109.565" y="103.093" fill="#F2F2F2" width="12.755" height="1.326"/>
				</g>
			</g>
			<g>
				<g>
					<rect x="124.404" y="98.722" fill="#F2F2F2" width="12.756" height="1.327"/>
				</g>
				<g>
					<rect x="124.404" y="100.907" fill="#F2F2F2" width="12.756" height="1.328"/>
				</g>
				<g>
					<rect x="124.404" y="103.093" fill="#F2F2F2" width="12.756" height="1.326"/>
				</g>
			</g>
		</g>
		<g>
			<g>
				<path fill="#333333" d="M68.997,82.688H35.882c-1.336,0-2.416,1.082-2.416,2.415v43.598c0,1.332,1.08,2.413,2.416,2.413h33.115
					c1.331,0,2.412-1.081,2.412-2.413V85.103C71.409,83.77,70.328,82.688,68.997,82.688z"/>
			</g>
			<g>
				<path fill="#FFFFFF" d="M52.439,127.942c-0.536,0-0.971,0.431-0.971,0.969c0,0.537,0.435,0.971,0.971,0.971
					c0.535,0,0.971-0.434,0.971-0.971C53.409,128.373,52.974,127.942,52.439,127.942z"/>
			</g>
			<g>
				<rect x="37.773" y="87.368" fill="#FFFFFF" width="29.331" height="39.064"/>
			</g>
			<g>
				<rect x="37.773" y="87.368" fill="#CCCBC9" width="29.331" height="3.566"/>
			</g>
			<g>
				<rect x="37.773" y="123.896" fill="#CCCBC9" width="29.331" height="2.536"/>
			</g>
			<g>
				<g>
					<g>
						<g>
							<rect x="37.786" y="90.934" fill="#FF916E" width="29.304" height="15.056"/>
						</g>
					</g>
					<g>
						<g>
							<g>
								<rect x="41.763" y="93.024" fill="#FDFBF2" width="10.227" height="7.619"/>
							</g>
						</g>
					</g>
					<g>
						<g>
							<g>
								<rect x="53.345" y="93.024" fill="#FDFBF2" width="10.226" height="7.619"/>
							</g>
						</g>
					</g>
					<g>
						<g>
							<rect x="39.094" y="102.205" fill="#333333" width="10.61" height="0.777"/>
						</g>
					</g>
					<g>
						<g>
							<rect x="39.094" y="103.65" fill="#333333" width="12.997" height="0.776"/>
						</g>
					</g>
					<g>
						<g>
							<rect x="53.529" y="102.205" fill="#333333" width="11.199" height="0.777"/>
						</g>
					</g>
					<g>
						<g>
							<rect x="53.529" y="103.65" fill="#333333" width="8.484" height="0.776"/>
						</g>
					</g>
					<g>
						<g>
							<polygon fill="#333333" points="64.659,98.123 66.213,96.943 64.659,95.763 							"/>
						</g>
					</g>
					<g>
						<g>
							<polygon fill="#333333" points="40.385,98.123 40.385,95.763 38.833,96.943 							"/>
						</g>
					</g>
				</g>
				<g>
					<path fill="#CCCBC9" d="M42.837,107.615c-1.52,0-2.754,1.234-2.754,2.756c0,1.521,1.233,2.754,2.754,2.754
						c1.522,0,2.754-1.233,2.754-2.754C45.591,108.849,44.359,107.615,42.837,107.615z"/>
				</g>
				<g>
					<path fill="#CCCBC9" d="M49.329,107.615c-1.521,0-2.754,1.234-2.754,2.756c0,1.521,1.232,2.754,2.754,2.754
						c1.521,0,2.754-1.233,2.754-2.754C52.083,108.849,50.851,107.615,49.329,107.615z"/>
				</g>
				<g>
					<path fill="#CCCBC9" d="M62.312,107.615c-1.521,0-2.754,1.234-2.754,2.756c0,1.521,1.233,2.754,2.754,2.754
						c1.521,0,2.754-1.233,2.754-2.754C65.066,108.849,63.833,107.615,62.312,107.615z"/>
				</g>
				<g>
					<path fill="#CCCBC9" d="M55.822,107.615c-1.522,0-2.756,1.234-2.756,2.756c0,1.521,1.234,2.754,2.756,2.754
						c1.521,0,2.754-1.233,2.754-2.754C58.575,108.849,57.343,107.615,55.822,107.615z"/>
				</g>
				<g>
					<g>
						<rect x="40.844" y="114.422" fill="#CCCBC9" width="4.138" height="1.099"/>
					</g>
					<g>
						<rect x="40.844" y="116.104" fill="#CCCBC9" width="4.138" height="1.099"/>
					</g>
				</g>
				<g>
					<g>
						<rect x="47.261" y="114.422" fill="#CCCBC9" width="4.137" height="1.099"/>
					</g>
					<g>
						<rect x="47.261" y="116.104" fill="#CCCBC9" width="4.137" height="1.099"/>
					</g>
				</g>
				<g>
					<g>
						<rect x="53.753" y="114.422" fill="#CCCBC9" width="4.137" height="1.099"/>
					</g>
					<g>
						<rect x="53.753" y="116.104" fill="#CCCBC9" width="4.137" height="1.099"/>
					</g>
				</g>
				<g>
					<g>
						<rect x="60.243" y="114.422" fill="#CCCBC9" width="4.138" height="1.099"/>
					</g>
					<g>
						<rect x="60.243" y="116.104" fill="#CCCBC9" width="4.138" height="1.099"/>
					</g>
				</g>
			</g>
			<g>
				<g>
					<rect x="37.773" y="118.878" fill="#333333" width="29.331" height="5.018"/>
				</g>
				<g>
					<g>
						<rect x="39.604" y="119.752" fill="#F2F2F2" width="7.515" height="0.783"/>
					</g>
					<g>
						<rect x="39.604" y="121.041" fill="#F2F2F2" width="7.515" height="0.783"/>
					</g>
					<g>
						<rect x="39.604" y="122.331" fill="#F2F2F2" width="7.515" height="0.782"/>
					</g>
				</g>
				<g>
					<g>
						<rect x="48.347" y="119.752" fill="#F2F2F2" width="7.516" height="0.783"/>
					</g>
					<g>
						<rect x="48.347" y="121.041" fill="#F2F2F2" width="7.516" height="0.783"/>
					</g>
					<g>
						<rect x="48.347" y="122.331" fill="#F2F2F2" width="7.516" height="0.782"/>
					</g>
				</g>
				<g>
					<g>
						<rect x="57.09" y="119.752" fill="#F2F2F2" width="7.515" height="0.783"/>
					</g>
					<g>
						<rect x="57.09" y="121.041" fill="#F2F2F2" width="7.515" height="0.783"/>
					</g>
					<g>
						<rect x="57.09" y="122.331" fill="#F2F2F2" width="7.515" height="0.782"/>
					</g>
				</g>
			</g>
		</g>
	</g>
</g>
</svg>
